# xmcd CD database file
#
# Track frame offsets:
#	150
#	10705
#	19417
#	29997
#	40877
#	50745
#	62252
#	72627
#	84955
#	99237
#	109657
#	119062
#	131692
#	141827
#	152207
#	164085
#	173585
#	187090
#	204152
#	219687
#	229957
#	261790
#	276195
#	289657
#	303247
#	322635
#	339947
#
# Disc length: 4750 seconds
#
# Revision: 2
# Processed by: cddbd v1.5.2PL0 Copyright (c) Steve Scherf et al.
# Submitted via: CDex 1.70beta3
#
DISCID=8d128c1b
DTITLE=THE BEATLES - THE BEATLES 1(2006/12/24 20:14:56)
DYEAR=1900
DGENRE=Rock
TTITLE0=Love me do
TTITLE1=From me to you
TTITLE2=トラック 3
TTITLE3=トラック 4
TTITLE4=トラック 5
TTITLE5=トラック 6
TTITLE6=トラック 7
TTITLE7=トラック 8
TTITLE8=トラック 9
TTITLE9=トラック 10
TTITLE10=トラック 11
TTITLE11=トラック 12
TTITLE12=トラック 13
TTITLE13=トラック 14
TTITLE14=トラック 15
TTITLE15=トラック 16
TTITLE16=トラック 17
TTITLE17=トラック 18
TTITLE18=トラック 19
TTITLE19=トラック 20
TTITLE20=トラック 21
TTITLE21=トラック 22
TTITLE22=トラック 23
TTITLE23=トラック 24
TTITLE24=トラック 25
TTITLE25=トラック 26
TTITLE26=トラック 27
EXTD=
EXTT0=
EXTT1=
EXTT2=
EXTT3=
EXTT4=
EXTT5=
EXTT6=
EXTT7=
EXTT8=
EXTT9=
EXTT10=
EXTT11=
EXTT12=
EXTT13=
EXTT14=
EXTT15=
EXTT16=
EXTT17=
EXTT18=
EXTT19=
EXTT20=
EXTT21=
EXTT22=
EXTT23=
EXTT24=
EXTT25=
EXTT26=
PLAYORDER=
